<svg width="18" height="18" viewBox="0 0 18 18" fill="none" xmlns="http://www.w3.org/2000/svg">
<path d="M7.9499 9.53251C7.8796 9.46278 7.8238 9.37983 7.78573 9.28844C7.74765 9.19704 7.72805 9.09901 7.72805 9.00001C7.72805 8.901 7.74765 8.80297 7.78573 8.71157C7.8238 8.62018 7.8796 8.53723 7.9499 8.46751L11.3924 5.03251C11.4627 4.96278 11.5185 4.87983 11.5566 4.78844C11.5946 4.69704 11.6142 4.59901 11.6142 4.50001C11.6142 4.401 11.5946 4.30297 11.5566 4.21157C11.5185 4.12018 11.4627 4.03723 11.3924 3.9675C11.2519 3.82782 11.0618 3.74941 10.8636 3.74941C10.6655 3.74941 10.4754 3.82782 10.3349 3.9675L6.89239 7.41001C6.47104 7.83188 6.23438 8.40375 6.23438 9.00001C6.23438 9.59626 6.47104 10.1681 6.89239 10.59L10.3349 14.0325C10.4746 14.1711 10.6631 14.2492 10.8599 14.25C10.9586 14.2506 11.0564 14.2317 11.1478 14.1943C11.2392 14.157 11.3223 14.102 11.3924 14.0325C11.4627 13.9628 11.5185 13.8798 11.5566 13.7884C11.5946 13.697 11.6142 13.599 11.6142 13.5C11.6142 13.401 11.5946 13.303 11.5566 13.2116C11.5185 13.1202 11.4627 13.0372 11.3924 12.9675L7.9499 9.53251Z" fill="#4B5563"/>
</svg>
