<svg width="16" height="19" viewBox="0 0 16 19" fill="none" xmlns="http://www.w3.org/2000/svg">
<path d="M9.16016 15.9347L8.38672 16.7081C8.03516 17.0245 7.50781 17.0245 7.19141 16.7081L0.371094 9.85266C0.0195312 9.53625 0.0195312 9.00891 0.371094 8.6925L7.19141 1.83704C7.50781 1.52063 8.07031 1.52063 8.38672 1.83704L9.16016 2.61047C9.51172 2.96204 9.47656 3.48938 9.16016 3.84094L4.90625 7.84875H15.0312C15.4883 7.84875 15.875 8.23547 15.875 8.6925V9.8175C15.875 10.3097 15.4883 10.6613 15.0312 10.6613H4.90625L9.16016 14.7042C9.47656 15.0558 9.51172 15.5831 9.16016 15.9347Z" fill="#045785"/>
</svg>
