<svg width="72" height="73" viewBox="0 0 72 73" fill="none" xmlns="http://www.w3.org/2000/svg">
<path fill-rule="evenodd" clip-rule="evenodd" d="M36.0003 0.808594C33.9847 0.808594 32.1283 1.30956 30.0963 2.14999C28.1339 2.96153 25.8548 4.15763 23.0167 5.64703L16.125 9.26363C12.6417 11.0915 9.85419 12.5543 7.70189 13.9916C5.47213 15.4807 3.75473 17.0486 2.50406 19.1725C1.25759 21.2893 0.69686 23.5814 0.42796 26.311C0.16696 28.9605 0.16696 32.2189 0.166993 36.3173V36.9666C0.16696 41.0646 0.16696 44.3233 0.42796 46.9729C0.69686 49.7026 1.25759 51.9946 2.50406 54.1113C3.75473 56.2353 5.47213 57.8032 7.70189 59.2922C9.85419 60.7296 12.6417 62.1922 16.1249 64.0202L23.0164 67.6366C25.8546 69.1263 28.1339 70.3223 30.0963 71.1339C32.1283 71.9743 33.9847 72.4753 36.0003 72.4753C38.016 72.4753 39.8723 71.9743 41.9043 71.1339C43.8667 70.3223 46.146 69.1263 48.984 67.6369L55.8757 64.0202C59.359 62.1922 62.1463 60.7296 64.2987 59.2922C66.5287 57.8032 68.246 56.2353 69.4967 54.1113C70.743 51.9946 71.3037 49.7026 71.5727 46.9729C71.8337 44.3233 71.8337 41.0649 71.8337 36.9669V36.3169C71.8337 32.2189 71.8337 28.9605 71.5727 26.311C71.3037 23.5814 70.743 21.2893 69.4967 19.1725C68.246 17.0486 66.5287 15.4807 64.2987 13.9916C62.1463 12.5543 59.359 11.0915 55.8757 9.26359L48.984 5.64706C46.146 4.15766 43.8667 2.96156 41.9043 2.14999C39.8723 1.30956 38.016 0.808594 36.0003 0.808594ZM25.2363 10.1289C28.2021 8.57249 30.2803 7.48459 32.007 6.77046C33.6877 6.07539 34.8687 5.80859 36.0003 5.80859C37.132 5.80859 38.313 6.07539 39.9937 6.77046C41.7203 7.48459 43.7987 8.57249 46.7643 10.1289L53.431 13.6274C57.0633 15.5335 59.6153 16.8763 61.522 18.1497C62.4627 18.7779 63.2017 19.3612 63.7987 19.9477L52.6963 25.4989L24.3635 10.5869L25.2363 10.1289ZM19.1492 13.3232L18.5697 13.6274C14.9374 15.5335 12.3854 16.8763 10.4787 18.1497C9.53803 18.7779 8.79886 19.3612 8.20213 19.9477L36.0003 33.8469L47.191 28.2516L19.836 13.8542C19.5702 13.7144 19.34 13.5334 19.1492 13.3232ZM5.79259 24.3332C5.62426 25.0461 5.49703 25.8557 5.40386 26.8012C5.16979 29.1773 5.16699 32.1899 5.16699 36.4469V36.8369C5.16699 41.0939 5.16979 44.1066 5.40386 46.4826C5.63279 48.8066 6.06773 50.3093 6.81256 51.5743C7.55323 52.8319 8.62456 53.8959 10.4787 55.1343C12.3854 56.4076 14.9374 57.7503 18.5697 59.6566L25.2363 63.1549C28.2021 64.7112 30.2803 65.7992 32.007 66.5132C32.5523 66.7389 33.045 66.9193 33.5003 67.0602V38.1869L5.79259 24.3332ZM38.5003 67.0602C38.9557 66.9193 39.4483 66.7389 39.9937 66.5132C41.7203 65.7992 43.7987 64.7112 46.7643 63.1549L53.431 59.6566C57.0633 57.7503 59.6153 56.4076 61.522 55.1343C63.376 53.8959 64.4473 52.8319 65.188 51.5743C65.933 50.3093 66.368 48.8066 66.5967 46.4826C66.831 44.1066 66.8337 41.0939 66.8337 36.8369V36.4469C66.8337 32.1899 66.831 29.1773 66.5967 26.8012C66.5037 25.8557 66.3763 25.0461 66.208 24.3331L55.167 29.8537V39.9753C55.167 41.3559 54.0477 42.4753 52.667 42.4753C51.2863 42.4753 50.167 41.3559 50.167 39.9753V32.3536L38.5003 38.1869V67.0602Z" fill="#045785"/>
</svg>
