<svg width="18" height="18" viewBox="0 0 18 18" fill="none" xmlns="http://www.w3.org/2000/svg">
<path d="M11.55 7.41001L8.10747 3.96751C7.96695 3.82782 7.77686 3.74941 7.57872 3.74941C7.38058 3.74941 7.1905 3.82782 7.04997 3.96751C6.97968 4.03723 6.92388 4.12018 6.88581 4.21157C6.84773 4.30297 6.82812 4.401 6.82812 4.50001C6.82812 4.59901 6.84773 4.69704 6.88581 4.78844C6.92388 4.87983 6.97968 4.96278 7.04997 5.03251L10.5 8.46751C10.5703 8.53723 10.6261 8.62018 10.6641 8.71157C10.7022 8.80297 10.7218 8.901 10.7218 9.00001C10.7218 9.09901 10.7022 9.19704 10.6641 9.28844C10.6261 9.37983 10.5703 9.46278 10.5 9.53251L7.04997 12.9675C6.90875 13.1077 6.82901 13.2983 6.82831 13.4974C6.8276 13.6964 6.90599 13.8875 7.04622 14.0288C7.18646 14.17 7.37705 14.2497 7.57607 14.2504C7.7751 14.2511 7.96625 14.1727 8.10747 14.0325L11.55 10.59C11.9713 10.1681 12.208 9.59626 12.208 9.00001C12.208 8.40375 11.9713 7.83188 11.55 7.41001Z" fill="#4B5563"/>
</svg>
